<svg width="529" height="57" viewBox="0 0 529 57" fill="none" xmlns="http://www.w3.org/2000/svg">
<g clip-path="url(#clip0)">
<path d="M40.1968 23.1603C44.8349 20.4583 49.0865 17.2415 53.338 13.3815C57.4608 9.52145 60.8105 5.53274 63.3872 1.41536C60.5528 1.80136 57.5896 1.93003 54.3687 1.93003C51.1478 1.93003 48.4423 1.6727 46.1232 1.41536C43.16 8.1061 38.9084 13.7675 33.2396 18.5282C27.9574 22.9029 21.1291 25.0903 13.1413 24.833C13.1413 15.4402 13.2701 7.59143 13.7854 1.41536C11.5952 1.80136 9.27618 1.93003 7.08597 1.93003C4.76693 1.93003 2.44788 1.6727 0 1.41536C0.386508 8.23477 0.644179 17.2415 0.644179 28.5643C0.644179 39.8871 0.386508 49.0226 0 55.842H13.9143C13.5278 49.0226 13.2701 41.4312 13.1413 33.1964C19.583 32.5531 25.123 33.4537 30.0188 35.7698C35.1722 38.3431 39.1661 41.5598 41.8717 45.4199C44.5772 49.2799 46.1232 52.754 46.2521 55.842H62.0989C61.0682 51.2099 58.6203 46.9639 54.6264 43.1039C50.7613 39.2438 46.2521 36.0271 41.2275 33.5824C36.2029 31.1377 31.5648 29.7224 27.442 29.2077V28.307C31.3071 27.535 35.5587 25.8623 40.1968 23.1603Z" fill="#F2E9E0"/>
<path d="M134.762 3.34537C129.222 1.15801 122.652 0 114.922 0C107.32 0 100.621 1.15801 95.2097 3.34537C89.6698 5.53273 85.547 8.8781 82.5838 13.1242C79.6206 17.3702 78.2034 22.5169 78.2034 28.4357C78.2034 34.3544 79.6206 39.5011 82.5838 43.7472C85.547 47.9932 89.6698 51.2099 95.2097 53.526C100.75 55.7133 107.32 56.8713 114.922 56.8713C122.523 56.8713 129.094 55.7133 134.633 53.526C140.173 51.3386 144.296 47.9932 147.259 43.7472C150.094 39.5011 151.64 34.3544 151.64 28.4357C151.64 22.3883 150.223 17.3702 147.259 13.1242C144.425 8.8781 140.173 5.6614 134.762 3.34537ZM136.179 39.6298C134.247 42.5892 131.541 44.9052 127.934 46.4492C124.327 47.9932 119.946 48.7652 115.05 48.7652C110.026 48.7652 105.645 47.9932 102.038 46.4492C98.4306 44.9052 95.725 42.5892 93.7925 39.6298C91.86 36.6704 90.9581 33.0677 90.9581 28.8217C90.9581 24.5756 91.86 20.8442 93.7925 17.7562C95.725 14.6682 98.4306 12.3521 102.038 10.6795C105.645 9.00677 109.897 8.23476 115.05 8.23476C120.075 8.23476 124.327 9.00677 127.934 10.6795C131.541 12.3521 134.247 14.6682 136.179 17.7562C138.112 20.8442 139.014 24.5756 139.014 28.693C139.143 33.0677 138.112 36.6704 136.179 39.6298Z" fill="#F2E9E0"/>
<path d="M240.279 36.5418C235.898 40.6591 231.26 43.6185 226.365 45.4199C221.469 47.2212 216.187 48.1219 210.647 48.1219C204.978 48.1219 200.082 47.3499 196.217 45.6772C192.352 44.0045 189.389 41.6885 187.327 38.7291C185.266 35.7698 184.364 32.2957 184.364 28.307C184.364 24.1896 185.524 20.5869 187.714 17.6275C189.904 14.6682 192.996 12.4808 196.99 10.9368C200.984 9.39278 205.751 8.62077 211.162 8.62077C215.414 8.62077 220.052 9.39278 224.947 10.6795C229.843 11.9661 234.997 14.2822 240.408 17.4989C240.15 15.3115 240.021 13.3815 240.021 11.7088C240.021 9.90746 240.15 7.97743 240.408 5.91874C234.997 3.73138 229.714 2.0587 224.947 1.15802C220.052 0.257342 215.285 -0.128662 210.518 -0.128662C202.53 -0.128662 195.573 0.900683 189.775 3.08804C183.978 5.2754 179.468 8.49211 176.376 12.7382C173.284 16.9842 171.609 22.1309 171.609 28.1783C171.609 33.9684 173.027 39.1151 175.99 43.3612C178.953 47.6072 183.205 50.9526 188.873 53.2686C194.542 55.5847 201.37 56.7427 209.229 56.7427C216.058 56.7427 222.113 55.9707 227.138 54.4266C232.162 52.8826 236.8 50.5666 241.052 47.6072C240.665 45.5485 240.408 43.7472 240.279 41.8172C240.15 40.4018 240.15 38.4718 240.279 36.5418Z" fill="#F2E9E0"/>
<path d="M318.096 3.34537C312.556 1.15801 305.985 0 298.384 0C290.782 0 284.083 1.15801 278.672 3.34537C273.132 5.53273 269.009 8.8781 266.046 13.1242C263.083 17.3702 261.666 22.5169 261.666 28.4357C261.666 34.3544 263.083 39.5011 266.046 43.7472C269.009 47.9932 273.132 51.2099 278.672 53.526C284.212 55.7133 290.782 56.8713 298.384 56.8713C305.985 56.8713 312.556 55.7133 318.096 53.526C323.636 51.3386 327.758 47.9932 330.722 43.7472C333.556 39.5011 335.102 34.3544 335.102 28.4357C335.102 22.3883 333.685 17.3702 330.722 13.1242C327.887 8.8781 323.636 5.6614 318.096 3.34537ZM319.642 39.6298C317.709 42.5892 315.004 44.9052 311.396 46.4492C307.789 47.9932 303.537 48.7652 298.513 48.7652C293.488 48.7652 289.108 47.9932 285.5 46.4492C281.893 44.9052 279.187 42.5892 277.255 39.6298C275.322 36.6704 274.42 33.0677 274.42 28.8217C274.42 24.5756 275.322 20.8442 277.255 17.7562C279.187 14.6682 281.893 12.3521 285.5 10.6795C289.108 9.00677 293.359 8.23476 298.513 8.23476C303.537 8.23476 307.789 9.00677 311.396 10.6795C315.004 12.3521 317.709 14.6682 319.642 17.7562C321.574 20.8442 322.476 24.5756 322.476 28.693C322.476 33.0677 321.574 36.6704 319.642 39.6298Z" fill="#F2E9E0"/>
<path d="M432.502 1.41536C430.183 1.80136 427.091 1.93003 423.097 1.93003C419.232 1.93003 416.011 1.80136 413.692 1.41536C410.986 8.49211 407.765 16.0835 404.287 24.1896C400.551 32.4244 397.587 39.1151 395.011 44.2619C392.563 38.6005 389.6 32.0384 386.121 24.3183C383.029 17.1129 380.066 9.39279 377.103 1.41536C374.912 1.80136 371.691 1.93003 367.698 1.93003C363.704 1.93003 360.483 1.80136 357.906 1.41536C358.293 8.23477 358.55 17.2415 358.55 28.5643C358.55 39.8871 358.293 48.8939 357.906 55.7133H371.176C370.79 50.5666 370.661 43.3612 370.532 34.2257C370.403 26.6343 370.403 19.6862 370.532 13.1242C373.624 19.4289 376.716 26.2483 379.937 33.4537C383.673 41.6885 386.765 49.2799 389.342 55.9707H400.937C404.416 47.7359 407.508 40.1445 410.471 33.4537C413.95 25.7336 417.042 18.9142 419.876 12.9955C420.005 21.7449 420.005 29.851 419.876 37.1851C419.747 45.1625 419.49 51.3386 419.232 55.7133H432.888C432.373 49.1513 432.115 40.1445 432.115 28.8217C431.858 17.6276 431.987 8.49211 432.502 1.41536Z" fill="#F2E9E0"/>
<path d="M524.62 13.1242C521.656 8.8781 517.534 5.6614 511.994 3.34537C506.454 1.15801 499.883 0 492.282 0C484.681 0 477.981 1.15801 472.57 3.34537C467.03 5.53273 462.907 8.8781 459.944 13.1242C456.981 17.3702 455.564 22.5169 455.564 28.4357C455.564 34.3544 456.981 39.5011 459.944 43.7472C462.907 47.9932 467.03 51.2099 472.57 53.526C478.11 55.7133 484.681 56.8713 492.282 56.8713C499.883 56.8713 506.454 55.7133 511.994 53.526C517.534 51.3386 521.656 47.9932 524.62 43.7472C527.454 39.5011 529 34.3544 529 28.4357C529 22.5169 527.583 17.3702 524.62 13.1242ZM513.54 39.6298C511.607 42.5892 508.902 44.9052 505.294 46.4492C501.687 47.9932 497.435 48.7652 492.411 48.7652C487.386 48.7652 483.006 47.9932 479.398 46.4492C475.791 44.9052 473.085 42.5892 471.153 39.6298C469.22 36.6704 468.318 33.0677 468.318 28.8217C468.318 24.5756 469.22 20.8442 471.153 17.7562C473.085 14.6682 475.791 12.3521 479.398 10.6795C483.006 9.00677 487.257 8.23476 492.411 8.23476C497.435 8.23476 501.687 9.00677 505.294 10.6795C508.902 12.3521 511.607 14.6682 513.54 17.7562C515.472 20.8442 516.374 24.5756 516.374 28.693C516.503 33.0677 515.472 36.6704 513.54 39.6298Z" fill="#F2E9E0"/>
</g>
<defs>
<clipPath id="clip0">
<rect width="529" height="57" fill="white"/>
</clipPath>
</defs>
</svg>
